<?xml version="1.0" encoding="UTF-8"?>
<!DOCTYPE svg PUBLIC "-//W3C//DTD SVG 1.1//EN" "http://www.w3.org/Graphics/SVG/1.1/DTD/svg11.dtd">
<!-- Creator: CorelDRAW 2021.5 -->
<svg xmlns="http://www.w3.org/2000/svg" xml:space="preserve" width="10.5in" height="2.5in" version="1.1" style="shape-rendering:geometricPrecision; text-rendering:geometricPrecision; image-rendering:optimizeQuality; fill-rule:evenodd; clip-rule:evenodd"
viewBox="0 0 10500 2500"
 xmlns:xlink="http://www.w3.org/1999/xlink"
 xmlns:xodm="http://www.corel.com/coreldraw/odm/2003">
 <defs>
  <style type="text/css">
   <![CDATA[
    .fil0 {fill:black;fill-rule:nonzero}
    .fil1 {fill:url(#id0);fill-rule:nonzero}
   ]]>
  </style>
  <linearGradient id="id0" gradientUnits="userSpaceOnUse" x1="2564.07" y1="1380.94" x2="893.13" y2="1362.74">
   <stop offset="0" style="stop-opacity:1; stop-color:#001D26"/>
   <stop offset="0.611765" style="stop-opacity:1; stop-color:#097492"/>
   <stop offset="1" style="stop-opacity:1; stop-color:#12CCFF"/>
  </linearGradient>
 </defs>
 <g id="Layer_x0020_1">
  <metadata id="CorelCorpID_0Corel-Layer"/>
  <path class="fil0" d="M4495.15 866.12l0 1282.61 723.54 0c57.43,0 101.72,13.94 132.49,41.83 31.17,28.3 46.35,63.58 46.35,105.83 0,43.07 -15.18,78.34 -45.53,105 -30.35,26.66 -75.06,40.2 -133.31,40.2l-861.77 0c-77.52,0 -133.31,-17.23 -167.35,-51.68 -34.04,-34.46 -51.27,-90.24 -51.27,-166.94l0 -1356.85c0,-71.78 16.41,-125.92 48.81,-162.02 32.4,-36.1 75.06,-54.15 127.97,-54.15 53.32,0 96.8,17.64 130.02,53.32 33.22,35.69 50.04,90.24 50.04,162.84z"/>
  <path class="fil0" d="M6108.11 864.07l685.81 1038.56 0 -1048.4c0,-68.09 14.76,-118.95 43.89,-153 29.13,-34.04 68.5,-51.27 118.13,-51.27 50.86,0 91.47,16.82 121,50.86 29.53,34.04 44.3,85.31 44.3,153.41l0 1385.15c0,154.64 -63.99,231.75 -191.96,231.75 -31.99,0 -60.7,-4.51 -86.54,-13.94 -25.43,-9.02 -49.63,-23.79 -71.78,-43.48 -22.56,-20.1 -43.07,-43.48 -62.35,-70.55 -19.28,-26.66 -38.56,-54.14 -57.83,-82.04l-669 -1025.43 0 1031.18c0,67.27 -15.59,118.13 -46.76,152.58 -31.58,34.46 -71.78,51.68 -120.59,51.68 -50.45,0 -91.06,-17.22 -121.41,-52.09 -30.76,-34.87 -45.94,-85.73 -45.94,-152.17l0 -1358.5c0,-57.83 6.56,-102.95 19.28,-135.77 15.18,-36.09 40.61,-65.63 75.88,-88.59 35.28,-22.56 73.42,-34.05 114.03,-34.05 32.41,0 59.89,5.33 82.44,15.59 22.97,10.67 43.07,24.61 60.3,42.25 17.23,17.64 34.87,40.2 52.91,68.5 18.05,27.89 36.91,57.02 56.19,87.78z"/>
  <path class="fil0" d="M10268.9 954.81l-389.26 0 0 1278.92c0,73.83 -16.41,128.38 -49.63,164.07 -32.81,35.69 -75.47,53.32 -127.56,53.32 -52.91,0 -96.39,-18.05 -129.62,-54.14 -33.22,-36.09 -50.04,-90.24 -50.04,-163.25l0 -1278.92 -389.26 0c-61.11,0 -106.23,-13.54 -135.77,-40.2 -29.53,-27.07 -44.71,-62.76 -44.71,-107.06 0,-45.53 15.59,-81.63 46.35,-108.29 30.76,-26.66 75.47,-39.78 134.13,-39.78l1135.36 0c61.93,0 107.46,13.54 137.81,41.02 29.94,27.48 45.12,63.17 45.12,107.06 0,44.3 -15.59,79.98 -45.94,107.06 -30.35,26.66 -75.88,40.2 -137,40.2z"/>
  <path class="fil0" d="M3705.04 951.36l-970.47 0c-57.79,0 -101.85,-13.44 -131.67,-40.2 -30.02,-26.93 -45.12,-61.94 -45.12,-104.59 0,-43.07 14.69,-78.48 43.89,-105.41 29,-26.75 73.42,-40.2 132.9,-40.2l970.47 0c59.48,0 103.9,13.45 132.9,40.2 29.2,26.94 43.89,62.34 43.89,105.41 0,42.66 -14.38,77.56 -43.48,104.59 -28.68,26.64 -73.06,40.2 -133.31,40.2zm2.93 731.9l-874.5 0 0 452.49 871.65 0c59.47,0 103.9,13.45 132.9,40.2 29.2,26.94 43.89,62.34 43.89,105.41 0,42.66 -14.38,77.56 -43.48,104.59 -28.68,26.64 -73.06,40.2 -133.31,40.2l-970.47 0c-57.79,0 -101.85,-13.45 -131.67,-40.2 -11.22,-10.07 -20.35,-21.26 -27.4,-33.57 -21.63,-28.87 -32.52,-70.18 -32.52,-123.65l0 -645.76c0,-59.48 13.46,-103.91 40.2,-132.9 9.47,-10.27 19.99,-18.74 31.53,-25.41 28.82,-21.17 69.82,-31.81 122.71,-31.81l970.47 0c59.48,0 103.9,13.45 132.9,40.2 29.2,26.94 43.89,62.35 43.89,105.42 0,42.66 -14.38,77.56 -43.48,104.59 -28.68,26.65 -73.06,40.2 -133.31,40.2z"/>
  <path class="fil0" d="M8525.43 951.36l-970.47 0c-57.78,0 -101.85,-13.44 -131.67,-40.2 -30.02,-26.93 -45.12,-61.94 -45.12,-104.59 0,-43.07 14.69,-78.48 43.89,-105.41 29,-26.75 73.42,-40.2 132.89,-40.2l970.47 0c59.47,0 103.9,13.45 132.89,40.2 29.2,26.94 43.89,62.34 43.89,105.41 0,42.66 -14.37,77.56 -43.48,104.59 -28.68,26.64 -73.06,40.2 -133.3,40.2zm2.93 731.9l-867.13 0 0 452.49 864.28 0c59.47,0 103.9,13.45 132.89,40.2 29.2,26.94 43.89,62.34 43.89,105.41 0,42.66 -14.37,77.56 -43.48,104.59 -28.68,26.64 -73.06,40.2 -133.3,40.2l-970.47 0c-57.78,0 -101.85,-13.45 -131.67,-40.2 -26.93,-24.16 -41.85,-54.83 -44.63,-91.69 -5.26,-20.41 -7.9,-43.79 -7.9,-70.12l0 -645.76c0,-59.48 13.46,-103.91 40.2,-132.9 7.37,-7.98 15.36,-14.88 23.98,-20.69 28.83,-21.25 69.88,-31.94 122.88,-31.94l970.47 0c59.47,0 103.9,13.45 132.89,40.2 29.2,26.94 43.89,62.35 43.89,105.42 0,42.66 -14.37,77.56 -43.48,104.59 -28.67,26.65 -73.06,40.2 -133.3,40.2z"/>
  <path class="fil1" d="M1418.83 689.25l0 1641.87c0,41.5 9.66,73.18 28.87,94.6 19.34,21.56 44.5,32.42 75.15,32.42 30.94,0 56.39,-10.56 75.73,-31.54 19.21,-20.83 28.88,-52.75 28.88,-95.48l0 -1641.87c0,-42.73 -9.67,-74.65 -28.88,-95.48 -19.34,-20.97 -44.79,-31.53 -75.73,-31.53 -30.65,0 -55.73,10.33 -75.15,31.24 -19.13,20.6 -28.87,52.52 -28.87,95.77zm-1290.49 -438.94c175.42,-73.67 362.31,-129.84 555.67,-167.52 194.5,-37.91 395.5,-57.35 597.98,-57.35 202.47,0 403.48,19.44 597.97,57.35 193.35,37.69 380.24,93.86 555.67,167.52l-3.2 3.18c51.69,22.45 85.7,60.56 85.7,103.81 0,69.05 -86.7,125.02 -193.65,125.02 -37.86,0 -73.17,-7.02 -103.01,-19.15l-2.24 2.22c-142.44,-59.82 -294.78,-105.54 -452.92,-136.37 -156.99,-30.6 -319.79,-46.29 -484.32,-46.29 -164.54,0 -327.33,15.69 -484.33,46.29 -158.14,30.82 -310.48,76.55 -452.92,136.37l-2.82 -2.8c-30.14,12.49 -65.99,19.73 -104.46,19.73 -106.95,0 -193.65,-55.97 -193.65,-125.02 0,-43.64 34.63,-82.05 87.12,-104.41l-2.59 -2.58zm672.96 1394.06l0 686.7c0,41.47 9.69,73.19 28.88,94.6 19.33,21.54 44.5,32.42 75.15,32.42 30.95,0 56.41,-10.58 75.74,-31.54 19.2,-20.81 28.88,-52.75 28.88,-95.48l0 -686.7c0,-42.73 -9.68,-74.67 -28.88,-95.48 -19.34,-20.96 -44.79,-31.54 -75.74,-31.54 -30.65,0 -55.74,10.35 -75.15,31.24 -19.12,20.58 -28.88,52.57 -28.88,95.78zm307.68 -479.2l0 1166.5c0,41.42 9.71,73.22 28.88,94.6 19.3,21.52 44.5,32.42 75.15,32.42 30.94,0 56.43,-10.61 75.73,-31.54 19.16,-20.78 28.88,-52.76 28.88,-95.48l0 -1166.5c0,-42.72 -9.72,-74.7 -28.88,-95.48 -19.3,-20.93 -44.79,-31.54 -75.73,-31.54 -30.65,0 -55.77,10.39 -75.15,31.24 -19.08,20.55 -28.88,52.69 -28.88,95.77z"/>
 </g>
</svg>
